<svg width="26" height="26" viewBox="0 0 26 26" fill="none" xmlns="http://www.w3.org/2000/svg">
<path d="M25.7333 10.3845C25.4095 8.8019 24.7891 7.29484 23.9049 5.94294C23.8548 5.86902 23.8288 5.78143 23.8303 5.69216C23.8328 4.56189 23.8334 3.43153 23.8321 2.30107V2.16615H23.6922C22.5511 2.16615 21.4101 2.16537 20.2691 2.16383C20.2059 2.16128 20.1442 2.14301 20.0897 2.11067C19.683 1.87954 19.2878 1.62442 18.8715 1.41119C17.2569 0.581258 15.4835 0.106242 13.6702 0.0180068C10.9263 -0.126934 8.20752 0.606057 5.90822 2.11067C5.85447 2.14437 5.79254 2.16275 5.72911 2.16383C4.58451 2.16711 3.43981 2.16788 2.29502 2.16615H2.16589V2.31061C2.16589 3.44819 2.16512 4.58578 2.16358 5.72336C2.16063 5.79007 2.14139 5.85505 2.10753 5.9126C1.88277 6.30698 1.63606 6.68981 1.42805 7.09257C0.586716 8.7181 0.105661 10.5059 0.0176714 12.3342C-0.125697 15.0751 0.606192 17.7905 2.10753 20.088C2.14308 20.1447 2.16246 20.2101 2.16358 20.277C2.16685 21.4144 2.16762 22.5518 2.16589 23.6894V23.8339H2.30687C3.44424 23.8339 4.58162 23.8339 5.719 23.8365C5.78922 23.8397 5.85757 23.8601 5.91804 23.896C6.31267 24.1202 6.69546 24.367 7.09846 24.5747C8.74516 25.4238 10.4987 25.889 12.3508 25.9832C15.0839 26.1226 17.7907 25.3918 20.0822 23.8957C20.1417 23.8582 20.2104 23.8377 20.2807 23.8365C21.4218 23.8327 22.563 23.8339 23.7038 23.8339H23.8329V23.6894C23.8329 22.5518 23.8337 21.4144 23.8352 20.277C23.8371 20.2099 23.8571 20.1446 23.893 20.088C25.0908 18.2317 25.787 16.2066 25.9604 14.0019C26.0556 12.7914 25.9791 11.5736 25.7333 10.3845ZM23.8156 13.5601C23.7047 15.6603 23.0304 17.5637 21.817 19.2776C21.7119 19.4173 21.6575 19.5887 21.6631 19.7635C21.6732 20.3556 21.6668 20.9481 21.6668 21.5401V21.6699H21.5435C20.8934 21.6699 20.2434 21.6699 19.5937 21.6725C19.5305 21.6735 19.4689 21.693 19.4166 21.7285C18.4737 22.406 17.4596 22.9446 16.3543 23.3037C15.0974 23.7153 13.7751 23.8906 12.4543 23.8209C10.3427 23.7102 8.43055 23.031 6.7099 21.8077C6.58151 21.7112 6.4241 21.6612 6.26356 21.6661C5.66439 21.6756 5.06465 21.6699 4.46548 21.6699H4.33606V21.5462C4.33606 20.8999 4.33779 20.2533 4.33317 19.607C4.33187 19.5368 4.31008 19.4686 4.27048 19.4108C3.62162 18.5056 3.09901 17.5351 2.74252 16.4785C2.30155 15.1848 2.1122 13.8187 2.18467 12.4538C2.2956 10.3421 2.9745 8.4297 4.19768 6.70916C4.29451 6.5809 4.34466 6.42342 4.33982 6.26278C4.32999 5.66355 4.33606 5.06404 4.33606 4.46452V4.33451H4.46982C5.11607 4.33451 5.76262 4.33451 6.40887 4.33191C6.4721 4.33087 6.53365 4.31139 6.58597 4.27586C7.44023 3.66392 8.35284 3.16264 9.34346 2.8064C10.6381 2.33611 12.0116 2.12152 13.388 2.17452C15.5499 2.25658 17.5125 2.9264 19.2759 4.18398C19.4156 4.28925 19.587 4.34368 19.7618 4.33827C20.3538 4.32786 20.9463 4.33451 21.5382 4.33451H21.6685V4.45586C21.6685 5.10593 21.6685 5.75601 21.6711 6.4058C21.6721 6.469 21.6915 6.53056 21.7269 6.5829C22.3885 7.50572 22.918 8.49615 23.2771 9.57556C23.7065 10.8578 23.8892 12.2098 23.8156 13.5601Z" fill="#51AE42"/>
<path d="M16.4721 7.33361C16.5766 7.54009 16.6814 7.74637 16.7866 7.95246C16.9168 8.19914 16.9492 8.48447 16.8775 8.75326C16.4912 10.2638 16.1061 11.7744 15.7222 13.2853C15.6843 13.4342 15.6452 13.5831 15.6067 13.732H15.5818C14.7261 11.5714 13.8707 9.41113 13.0044 7.22223L10.4269 13.7332C10.4066 13.7199 10.3923 13.6993 10.3872 13.6758C9.97058 12.0426 9.55354 10.4095 9.13609 8.77649C9.05834 8.49382 9.09201 8.19275 9.23039 7.9334C9.33713 7.72791 9.44266 7.52153 9.54575 7.31515C9.5597 7.28775 9.5691 7.25826 9.58184 7.2258H5.05554C5.09102 7.26303 5.11619 7.28983 5.14105 7.31515C5.40385 7.57325 5.66665 7.83135 5.92945 8.08945C6.09139 8.24278 6.20372 8.4396 6.25239 8.65529C6.53803 9.91681 6.82478 11.1782 7.11265 12.4395C7.50684 14.1749 7.89407 15.9114 8.29524 17.6455C8.41016 18.1429 8.31283 18.5622 7.9253 18.9127C7.74154 19.0792 7.57022 19.2588 7.39374 19.433C7.37494 19.4518 7.35978 19.4741 7.33855 19.5H11.8585C11.8397 19.4583 11.8254 19.425 11.8094 19.3925C11.6702 19.1158 11.5328 18.8383 11.3894 18.564C11.3722 18.5341 11.3623 18.5007 11.3603 18.4664C11.3584 18.4321 11.3645 18.3979 11.3782 18.3662C11.8852 16.9838 12.3905 15.6008 12.8943 14.2172C12.9265 14.1278 12.9622 14.0424 13.0041 13.9345C13.0253 13.9855 13.0377 14.0117 13.0474 14.0388C13.5423 15.3941 14.0293 16.7521 14.5387 18.1024C14.6376 18.3642 14.65 18.5753 14.496 18.815C14.3598 19.0265 14.2643 19.2635 14.1454 19.5H18.6781C18.6423 19.4622 18.6175 19.4354 18.592 19.4107C18.3797 19.1992 18.1578 18.9937 17.9528 18.7754C17.7014 18.5074 17.608 18.1798 17.6844 17.8224C17.87 16.9588 18.068 16.0952 18.2633 15.2336C18.7387 13.1317 19.2212 11.0309 19.6866 8.92689C19.7755 8.52574 19.9338 8.18743 20.2522 7.91434C20.4772 7.72136 20.6767 7.50157 20.8889 7.29311C20.908 7.27435 20.9232 7.25171 20.9444 7.2258H16.423C16.4418 7.26898 16.4557 7.30383 16.4721 7.33361Z" fill="#51AE42"/>
</svg>
