<?xml version="1.0" encoding="utf-8"?>
<!-- Generator: Adobe Illustrator 19.0.0, SVG Export Plug-In . SVG Version: 6.00 Build 0)  -->
<svg version="1.1" xmlns="http://www.w3.org/2000/svg" xmlns:xlink="http://www.w3.org/1999/xlink" x="0px" y="0px"
	 viewBox="-163 385 17 24" style="enable-background:new -163 385 17 24;" xml:space="preserve">
<style type="text/css">
	.st0{fill:#FAFAFA;}
	.st1{display:none;}
</style>
<g id="Layer_1">
	<title>logo</title>
	<desc>Created with Sketch.</desc>
	<g id="Page-1">
		<g id="curseforge-home" transform="translate(-360.000000, -26.000000)">
			<g id="top-nav" transform="translate(0.000000, -2.000000)">
				<g id="logo" transform="translate(360.000000, 28.000000)">
					<path id="Shape" class="st0" d="M-149.1,405.3c-1.2,0.7-2.5,0.7-3.4,1.3c-0.6,0.3-0.9,1.2-0.9,1.2c-0.6-1.3-1.3-1.8-2.2-2.1
						c-0.9-0.3-2.5-0.1-4.8-2.1c-1.5-1.3-1.6-3.1-1.5-4v-0.1c0-0.1,0-0.1,0-0.3s0-0.3,0.1-0.4l0,0l0,0c0.3-0.9,1-1.8,2.5-2.4
						c0,0-1,1.5,0,3c0.6,0.9,1.8,1.3,2.8,0.7c0.4-0.3,0.7-0.9,0.9-1.3c0.3-1,0.3-2.1-0.6-2.8c-1.3-1.2-1.6-2.8-0.7-3.9
						c0,0,0.3,1.3,1.6,1.2c0.9,0,0.9-0.3,0.6-0.6c-0.1-0.4-2.1-3.3,0.7-5.4c0,0,1.8-1.2,3.9-1c-1.2,0.1-2.5,0.9-3,2.1c0,0,0,0,0,0.1
						c-0.4,1.2-0.1,2.5,0.7,3.7c0.6,0.9,1.3,1.6,1.6,2.8c-0.4-0.1-0.7,0-1,0.3c-0.3,0.3-0.4,0.9-0.3,1.3c0.1,0.3,0.4,0.6,0.7,0.6
						c0.1,0,0.1,0,0.3,0h0.1c0.4-0.1,0.7-0.7,0.6-1.2c0.3,0.3,0.4,1,0.3,1.5c0,0.4-0.3,0.9-0.4,1.2c-0.1,0.3-0.4,0.6-0.6,0.9
						c-0.1,0.3-0.3,0.6-0.3,0.9s0,0.7,0.1,1c0.6,0.9,1.8,0,2.1-0.7c0.4-0.9,0.3-1.9-0.3-2.8c0,0,1,0.6,1.8,2.7
						C-146.9,402.5-147.9,404.6-149.1,405.3z"/>
				</g>
			</g>
		</g>
	</g>
</g>
<g id="Layer_2" class="st1">
</g>
</svg>
