<?xml version="1.0" encoding="utf-8"?>
<!-- Generator: Adobe Illustrator 19.0.0, SVG Export Plug-In . SVG Version: 6.00 Build 0)  -->
<svg version="1.1" id="Layer_1" xmlns="http://www.w3.org/2000/svg" xmlns:xlink="http://www.w3.org/1999/xlink" x="0px" y="0px"
	 viewBox="0 0 1000 1000" style="enable-background:new 0 0 1000 1000;" xml:space="preserve">
<style type="text/css">
	.st0{fill:#F2F2F2;}
	.st1{fill:#C1272D;}
</style>
<path class="st0" d="M435.2,475.3h129.2c9.7-49.6,48.8-88.6,98.4-98.3V247.7C542.4,259.1,446.6,354.9,435.2,475.3z"/>
<path class="st1" d="M809.3,475.3h129.2C927.2,354.9,831.4,259.1,711,247.7V377C760.6,386.7,799.6,425.7,809.3,475.3z"/>
<path class="st0" d="M564.7,524.5c0-0.3,0.1-0.6,0.1-1h-0.3H435.6h-0.3c0,0.3,0.1,0.6,0.1,1c-11.6,56.9-61.9,99.7-122.2,99.7
	c-60.7,0-111.2-43.3-122.5-100.7H61.4c12.1,128.3,120.2,228.7,251.7,228.7c74.1,0,140.7-31.8,186.9-82.6
	c41.2,45.2,98.4,75.4,162.8,81.5V621.8C613.5,612.2,574.7,573.6,564.7,524.5z"/>
<path class="st0" d="M711,621.8v129.3c120.4-11.4,216.2-107.2,227.6-227.6H809.3C799.6,573.1,760.6,612.1,711,621.8z"/>
</svg>
