<?xml version="1.0" encoding="utf-8"?>
<!-- Generator: Adobe Illustrator 19.0.0, SVG Export Plug-In . SVG Version: 6.00 Build 0)  -->
<svg version="1.1" id="Layer_1" xmlns="http://www.w3.org/2000/svg" xmlns:xlink="http://www.w3.org/1999/xlink" x="0px" y="0px"
	 viewBox="-293 385 24 24" style="enable-background:new -293 385 24 24;" xml:space="preserve">
<style type="text/css">
	.st0{fill:#E6E6E6;}
</style>
<title>YouTube icon</title>
<path class="st0" d="M-269.5,391.2c-0.3-1-1.1-1.8-2.1-2.1c-1.9-0.5-9.4-0.5-9.4-0.5s-7.5,0-9.4,0.5c-1,0.3-1.8,1.1-2.1,2.1
	c-0.4,1.9-0.5,3.9-0.5,5.8c0,1.9,0.2,3.9,0.5,5.8c0.3,1,1.1,1.8,2.1,2.1c1.9,0.5,9.4,0.5,9.4,0.5s7.5,0,9.4-0.5
	c1-0.3,1.8-1.1,2.1-2.1c0.3-1.9,0.5-3.8,0.5-5.8C-269,395.1-269.2,393.1-269.5,391.2z M-283.4,400.6v-7.2l6.3,3.6L-283.4,400.6z"/>
</svg>
